<svg xmlns="http://www.w3.org/2000/svg" xmlns:xlink="http://www.w3.org/1999/xlink" width="179.112" height="36.094" viewBox="0 0 179.112 36.094"><defs><style>.a{fill:#fff;}.b{clip-path:url(#a);}</style><clipPath id="a"><rect class="a" width="179.112" height="36.094"/></clipPath></defs><g class="b"><path class="a" d="M.107,1.078c1.927.053,3.875.04,5.812.186a2.3,2.3,0,0,1,2.155,2A7.78,7.78,0,0,1,8.16,5.354,1.82,1.82,0,0,1,6.987,7a6.624,6.624,0,0,1,1,.853,4.153,4.153,0,0,1,.578,3.414,2.7,2.7,0,0,1-1.794,2.279,5.973,5.973,0,0,1-1.853.308c-1.475.044-2.953.014-4.429.022-.31,0-.494-.072-.493-.439Q.019,7.378.022,1.315a1.408,1.408,0,0,1,.085-.237M2.962,9.919h0c0,.193,0,.386,0,.579,0,.97,0,.991.977.938a2.624,2.624,0,0,0,1.143-.257,1.7,1.7,0,0,0,.41-1.87,1.824,1.824,0,0,0-2.226-.781c-.592.155-.19.715-.3,1.076a1.154,1.154,0,0,0,0,.314M2.875,4.881c.032,1.483-.3,1.311,1.358,1.268.752-.019,1.057-.471,1.036-1.376-.018-.807-.311-1.1-1.113-1.131C2.87,3.6,2.87,3.6,2.875,4.881" transform="translate(0 -0.803)"/><path class="a" d="M40.892,7.575c0-1.933.009-3.867-.008-5.8,0-.412.128-.561.544-.555,1.318.018,2.636.014,3.955.005A4.087,4.087,0,0,1,49.71,4.78a14.4,14.4,0,0,1-.046,5.7,3.965,3.965,0,0,1-4.075,3.4c-1.423.032-2.847.008-4.271.024-.353,0-.443-.138-.441-.475.014-1.951.007-3.9.007-5.852h.008M43.8,3.793c-.018.281-.046.521-.046.762q0,2.947,0,5.894c0,1.142-.164,1.04,1.042,1.019,1.247-.022,1.649-.381,1.841-1.607a14.606,14.606,0,0,0,.025-4.5A1.619,1.619,0,0,0,45.149,3.8c-.43-.044-.868-.008-1.35-.008" transform="translate(-30.444 -0.908)"/><path class="a" d="M88.983,12.871a4.076,4.076,0,0,1-4.027.391,3.787,3.787,0,0,1-2.384-2.821,12.586,12.586,0,0,1,.014-6.811A4.105,4.105,0,0,1,86.739.413a5.68,5.68,0,0,1,3.984,1.042c.318.253.432.441.094.792a7.286,7.286,0,0,0-.875,1.181c-.287.455-.608.411-.947.113a2.517,2.517,0,0,0-1.832-.629A1.619,1.619,0,0,0,85.388,4.6a23.613,23.613,0,0,0,.006,4.563c.156,1.413.92,2.293,2.607,1.623a.984.984,0,0,0,.411-.529,1.434,1.434,0,0,0,.032-.572C88.411,8.6,88.41,8.6,87.308,8.567c-.3-.008-.408-.136-.407-.416,0-.562,0-1.125-.012-1.687-.007-.3.137-.405.418-.4,1.212.007,2.425.013,3.637.009.336,0,.455.132.453.475q-.022,3.137-.006,6.273c0,.35-.117.469-.455.456-.368-.015-.741.044-1.106.007a4.417,4.417,0,0,1-.821-.244l-.026-.166" transform="translate(-61.153 -0.298)"/><path class="a" d="M146.718,8.565a3.65,3.65,0,0,1,.723,5.685,3.927,3.927,0,0,1-2.59.877c-1.247.036-2.5.006-3.743.018-.366,0-.488-.149-.487-.509.009-3.812,0-7.624.022-11.435,0-.129.22-.371.335-.369,1.544.019,3.1-.017,4.626.151a2.31,2.31,0,0,1,2.012,1.643,3.48,3.48,0,0,1-.322,3.447,4.051,4.051,0,0,1-.578.493m-4.33.808c0,1.422-.011,2.665.018,3.908,0,.115.248.312.389.32a14.873,14.873,0,0,0,1.841.008,1.758,1.758,0,0,0,1.512-.711,2.6,2.6,0,0,0,.069-2.607,1.221,1.221,0,0,0-.777-.6c-.975-.159-1.967-.214-3.053-.319m.021-1.471c.916,0,1.773.032,2.626-.013a.884.884,0,0,0,.9-.8,12.682,12.682,0,0,0,.056-1.612,1.054,1.054,0,0,0-.77-1.019,8.161,8.161,0,0,0-2.813-.13Z" transform="translate(-104.731 -2.108)"/><path class="a" d="M638.44,100.148a2.213,2.213,0,0,1,.323-3.162,3.049,3.049,0,0,1-.978-2.733,2.576,2.576,0,0,1,2.473-2.472c.675-.038,1.357.092,2.038.117.754.028,1.51.009,2.264.043.162.007.447.147.453.241.02.3.225.684-.2.874-.238.106-.495.17-.809.274.043.222.086.455.135.686.384,1.812-.43,3.42-2.521,3.528-.42.022-.843,0-1.264-.009a.781.781,0,0,0-.787.84c-.013.525.4.443.714.464a26.43,26.43,0,0,1,2.721.187,2.06,2.06,0,0,1,1.734,1.742,2.672,2.672,0,0,1-2.39,3.532,6.4,6.4,0,0,1-3.635-.248,2.232,2.232,0,0,1-.547-3.7c.09-.08.2-.143.28-.2m2.63.382v-.014a6.128,6.128,0,0,1-.893-.008c-.579-.086-.955.451-1.055,1.013-.129.72.094,1.282.638,1.441a4.045,4.045,0,0,0,2.481-.008,1.414,1.414,0,0,0,.8-1.61c-.1-.521-.491-.8-1.177-.814-.263-.007-.526,0-.789,0m-1.615-5.762a1.355,1.355,0,0,0,1.53,1.513c1.013,0,1.469-.473,1.471-1.543,0-1.164-.458-1.628-1.615-1.626-.911,0-1.385.567-1.387,1.656" transform="translate(-474.722 -68.351)"/><path class="a" d="M79.189,92.951a3.855,3.855,0,0,1,2.291-1.157A2.171,2.171,0,0,1,83.625,92.9c.406-.262.782-.507,1.161-.747a2.438,2.438,0,0,1,3.217.5,2.111,2.111,0,0,1,.284,1.041c.031,2.319.024,4.639.035,6.958,0,.266-.086.365-.368.37-1.275.02-1.269.029-1.267-1.248,0-1.7.008-3.409-.011-5.114-.016-1.418-.6-1.738-1.878-1.108a1.429,1.429,0,0,0-.934,1.5c.064,1.808.012,3.619.029,5.429,0,.409-.108.547-.541.538C82.1,101,82.1,101.017,82.1,99.767q0-2.689,0-5.377c0-1.049-.537-1.4-1.5-.968a7.111,7.111,0,0,0-.823.468.917.917,0,0,0-.454.873c.018,1.915-.008,3.831.009,5.746,0,.369-.1.5-.465.516-1.226.05-1.221.058-1.223-1.16,0-2.355-.022-4.709-.012-7.064,0-.3-.222-.79.371-.8.733-.015,1.083-.117,1.08.713,0,.047.039.094.1.239" transform="translate(-57.79 -68.351)"/><path class="a" d="M133.886,92.936c2.113-1.551,3.408-1.57,4.427-.031.194-.127.393-.253.588-.385a3.2,3.2,0,0,1,2.618-.667,1.814,1.814,0,0,1,1.518,1.763c.044.524.033,1.053.031,1.58,0,1.792-.027,3.584-.013,5.376,0,.336-.1.421-.406.445-1.256.1-1.251.1-1.25-1.123,0-1.758.009-3.515-.015-5.273-.006-.473.072-1.047-.484-1.294a1.668,1.668,0,0,0-1.49.258,1.433,1.433,0,0,0-.85,1.508c.069,1.772.011,3.549.031,5.325.005.445-.1.617-.586.594-1.087-.051-1.1-.025-1.1-1.125-.007-1.81,0-3.621,0-5.431,0-1.145-.6-1.5-1.638-1-.235.114-.444.279-.67.413a.938.938,0,0,0-.464.92c.02,1.9,0,3.8.018,5.694,0,.406-.082.56-.532.529-1.172-.081-1.2-.058-1.211-1.222-.026-2.443-.016-4.886-.038-7.328,0-.377.127-.493.493-.473.773.043.774.03,1.028.943" transform="translate(-98.582 -68.341)"/><path class="a" d="M550.4,12.676c-.18.141-.308.25-.445.348-2.082,1.5-4.455.487-4.9-2.132a10.8,10.8,0,0,1,.181-4.649,2.5,2.5,0,0,1,2.917-1.975,13.828,13.828,0,0,1,2.08.678,1.118,1.118,0,0,0,.03-.241c0-1.229.02-2.459-.006-3.688-.007-.359.106-.47.444-.458,1.335.045,1.251-.253,1.248,1.214-.008,3.653,0,7.306-.01,10.96,0,.227-.058.625-.161.65a2.272,2.272,0,0,1-1.077.007c-.133-.035-.179-.408-.3-.714M550.311,9h.007a9.725,9.725,0,0,1,.013-1.474,1.391,1.391,0,0,0-.931-1.618c-.874-.4-2.193-.445-2.512.849a9.746,9.746,0,0,0,0,4.483,1.217,1.217,0,0,0,1.569.958,4.273,4.273,0,0,0,.819-.2,1.343,1.343,0,0,0,1.03-1.473c0-.51,0-1.02,0-1.529" transform="translate(-405.814 -0.415)"/><path class="a" d="M435.3,12.491c-.024.74-.437.8-.974.769-.39-.021-.529-.146-.529-.527q.011-6.012,0-12.024c0-.325.121-.445.433-.432,1.455.059,1.235-.272,1.242,1.188.006,1.138,0,2.275,0,3.472a7.856,7.856,0,0,1,1.277-.784A2.685,2.685,0,0,1,440.567,6.2a10.376,10.376,0,0,1,0,4.958,2.972,2.972,0,0,1-4.543,1.818c-.208-.126-.405-.271-.722-.484m.036-3.739h0c0,.632.032,1.266-.011,1.9a.919.919,0,0,0,.505.892,2.275,2.275,0,0,0,.661.321c1.242.311,2.2.153,2.348-1.109a20.758,20.758,0,0,0,.065-3.715c-.087-1.377-.887-1.848-2.208-1.449a1.726,1.726,0,0,0-1.357,1.8q0,.685,0,1.369" transform="translate(-323.078 -0.205)"/><path class="a" d="M515.049,82.1V77.593c.518,0,.985-.023,1.446.02.089.008.221.272.222.418.016,1.862.01,3.725.013,5.588q.007,3.215.025,6.43c0,.29-.085.394-.39.41-.555.029-1.095.1-1.058-.836-.23.174-.349.258-.462.35a3.2,3.2,0,0,1-4.03-.023,3.387,3.387,0,0,1-.957-2.168,12.222,12.222,0,0,1,.2-4.539,2.789,2.789,0,0,1,4.166-1.631c.251.147.5.3.824.492m.077,3.843h0c0-.615-.031-1.232.01-1.844a.922.922,0,0,0-.527-.944,4.524,4.524,0,0,0-1.124-.43,1.387,1.387,0,0,0-1.824,1.128,9.775,9.775,0,0,0,.071,4.49,1.088,1.088,0,0,0,1.027.835,2.9,2.9,0,0,0,1.847-.46.933.933,0,0,0,.524-.93c-.033-.613-.008-1.229-.008-1.844" transform="translate(-379.637 -57.785)"/><path class="a" d="M287.71,77.164v7.772c.7-.935,1.308-1.74,1.915-2.544.094-.125.245-.226.292-.364.35-1.023,1.18-.99,2.018-.931.346.025.437.2.209.484-.785.985-1.559,1.977-2.362,2.947a.573.573,0,0,0-.035.825c.914,1.324,1.8,2.668,2.686,4.009.118.178.2.379.357.684-.65,0-1.171.031-1.684-.018-.163-.016-.346-.219-.452-.38-.956-1.462-1.9-2.935-2.981-4.391,0,.337,0,.674,0,1.011q.008,1.764.018,3.528a.934.934,0,0,1,0,.151,11.889,11.889,0,0,1-1.388.187c-.093,0-.285-.275-.285-.424-.013-4.006,0-8.012-.014-12.017,0-.442.154-.555.549-.533.364.02.729,0,1.156,0" transform="translate(-213.008 -57.464)"/><path class="a" d="M323.711,100.28a3.115,3.115,0,0,1-3.483.749,1.935,1.935,0,0,1-1.271-1.294c-.487-1.516-.372-3.479,1.618-4.046a9.111,9.111,0,0,1,1.6-.265c.433-.042.873-.008,1.365-.008a10.572,10.572,0,0,0-.007-1.144c-.074-.645-.452-1.041-1.075-.959a9.762,9.762,0,0,0-2.159.566c-.387.146-.567.185-.779-.222-.465-.889-.491-.886.407-1.274a5.57,5.57,0,0,1,3.638-.444,1.914,1.914,0,0,1,1.575,1.756c.107,1.133.1,2.277.122,3.417.017,1.089.005,2.178,0,3.267,0,.277.111.622-.37.663-.84.072-.958.026-1.078-.518a1.783,1.783,0,0,0-.1-.244m-.152-2.24c-.028-1.477.34-1.419-1.206-1.364-.07,0-.14.007-.21.011a1.61,1.61,0,1,0,.455,2.935c.734-.357,1.15-.894.96-1.583" transform="translate(-237.369 -68.369)"/><path class="a" d="M476.848,23.96c-.944.219-1.128.149-1.545-.6a3.293,3.293,0,0,1-2.7.912,2.338,2.338,0,0,1-2.223-2.178,3.793,3.793,0,0,1,.279-2.105,2.737,2.737,0,0,1,2.184-1.365c.641-.1,1.3-.1,1.942-.165.138-.015.372-.135.376-.215a4.115,4.115,0,0,0-.069-1.092.885.885,0,0,0-1.06-.8,9.525,9.525,0,0,0-2.1.6c-.407.169-.612.164-.772-.247a2.375,2.375,0,0,0-.183-.32c-.207-.352-.175-.6.243-.791a6.47,6.47,0,0,1,3.468-.668,2.135,2.135,0,0,1,2.149,2.351c.023,2,.006,4.006.006,6.009v.662m-1.675-3.048c0-.246-.009-.492,0-.738.016-.338-.116-.488-.469-.439-.5.07-1.017.081-1.511.188a1.232,1.232,0,0,0-.993,1.247c-.007.228-.016.457-.006.685a1.045,1.045,0,0,0,1.135,1.1c1.171.034,1.851-.72,1.841-2.046" transform="translate(-350.306 -11.101)"/><path class="a" d="M45.3,96.405a8.28,8.28,0,0,1-.6,3.1,3.233,3.233,0,0,1-3.039,1.783A3.446,3.446,0,0,1,38.006,98.1a8.1,8.1,0,0,1,.3-4.2,3.289,3.289,0,0,1,3.642-2.049,3.441,3.441,0,0,1,3.189,3.326c.032.434.115.865.166,1.228m-5.766.028c.131.865.19,1.548.347,2.208a1.485,1.485,0,0,0,1.471,1.253,1.541,1.541,0,0,0,1.765-1.083,7.708,7.708,0,0,0,.044-4.508A1.433,1.433,0,0,0,41.7,93.161c-.763-.014-1.482.126-1.709.986-.211.8-.328,1.627-.456,2.286" transform="translate(-28.2 -68.397)"/><path class="a" d="M373.291,20.12c-.667,0-1.336.026-2-.009-.5-.026-.683.173-.61.642a11.96,11.96,0,0,0,.218,1.186,1.312,1.312,0,0,0,1.1.993,2.635,2.635,0,0,0,2.245-.456c.369-.288.528-.209.794.115.613.749.634.838-.142,1.319-1.217.754-3.812.83-4.74-.261a4.227,4.227,0,0,1-.9-1.448,8.358,8.358,0,0,1,.1-5.225,2.667,2.667,0,0,1,2.466-1.9,5.7,5.7,0,0,1,1.971.171,2.835,2.835,0,0,1,1.868,2.518c.113.635.087,1.293.14,1.94.029.353-.106.455-.457.44-.684-.03-1.369-.009-2.054-.009Zm.73-1.227a2.434,2.434,0,0,0-.541-2.211,2.024,2.024,0,0,0-1.952-.057,2.4,2.4,0,0,0-.675,2.268Z" transform="translate(-274.736 -11.215)"/><path class="a" d="M555.269,96.9h-5.115a3.377,3.377,0,0,0,.287,2.16,1.392,1.392,0,0,0,1.255.729,2.7,2.7,0,0,0,2.07-.572.362.362,0,0,1,.612.089c.04.058.083.113.125.169.573.788.584.829-.282,1.3-1.076.579-3.372.859-4.535-.227a3.465,3.465,0,0,1-.9-1.261,7.828,7.828,0,0,1,.047-5.656,2.867,2.867,0,0,1,2.891-1.809c1.895-.04,3.074.806,3.36,2.96.089.675.123,1.357.189,2.122m-1.825-1.286c-.03-.411-.043-.741-.079-1.068a1.43,1.43,0,0,0-1.606-1.413,1.958,1.958,0,0,0-1.631,2.268.343.343,0,0,0,.242.2c.994.014,1.987.009,3.074.009" transform="translate(-408.34 -68.385)"/><path class="a" d="M409.194,96.36a18.124,18.124,0,0,1-.51,2.725,3.28,3.28,0,0,1-3.65,2.189,3.408,3.408,0,0,1-3.172-2.99,8.858,8.858,0,0,1,.025-3.658,3.359,3.359,0,0,1,4.058-2.751,3.481,3.481,0,0,1,3.045,3.312c.056.382.073.77.107,1.155l.1.019m-1.879.383-.063-.01c0-.369.028-.74-.008-1.106a10.559,10.559,0,0,0-.207-1.139,1.588,1.588,0,0,0-1.548-1.327,1.537,1.537,0,0,0-1.74,1.048,7.877,7.877,0,0,0-.007,4.621,1.522,1.522,0,0,0,1.618,1.068,1.554,1.554,0,0,0,1.646-1.187c.15-.645.208-1.311.307-1.968" transform="translate(-299.161 -68.395)"/><path class="a" d="M184.035,20.008c-.721,0-1.442.007-2.162,0-.287,0-.432.1-.413.4.017.263.009.529.052.787.287,1.726,2.134,2.321,3.586,1.133.313-.256.45-.2.667.077.738.955.722,1.057-.394,1.546a4.761,4.761,0,0,1-3.6.127,2.981,2.981,0,0,1-1.862-2.381,9.012,9.012,0,0,1,.068-4.376c.547-1.975,2.026-2.625,3.932-2.364a2.957,2.957,0,0,1,2.571,2.952c.065.557.051,1.122.081,1.684.019.345-.131.457-.474.445-.685-.023-1.371-.007-2.056-.007v-.014m-2.487-1.231h3.326c-.052-.825.1-1.7-.668-2.233a1.567,1.567,0,0,0-1.793-.064c-.792.526-.8,1.4-.864,2.3" transform="translate(-133.818 -11.092)"/><path class="a" d="M188.53,92.589c0,.437,0,.8,0,1.168,0,1.723,0,3.445-.012,5.168-.007,1.145.76,1.693,1.81,1.242a3.953,3.953,0,0,0,1.112-.683,1.144,1.144,0,0,0,.225-.763c.014-1.792,0-3.585,0-5.378,0-.726,0-.728.7-.737.3,0,.591,0,.946,0,.01.2.027.384.028.569,0,2.672,0,5.344.017,8.016,0,.308-.056.433-.4.433-.879,0-.879.021-1.066-.818a13.407,13.407,0,0,1-1.974.945,2.48,2.48,0,0,1-2.291-.417,1.837,1.837,0,0,1-.733-1.5q-.056-3.083-.036-6.168c.006-1.048.038-1.048,1.064-1.072.172,0,.345,0,.618,0" transform="translate(-139.155 -68.957)"/><path class="a" d="M249.289,23.791c-.368.261-.65.487-.956.673a2.947,2.947,0,0,1-3.192.061,1.858,1.858,0,0,1-.859-1.667c-.039-2.249-.027-4.5-.016-6.749a.458.458,0,0,1,.268-.35,4.108,4.108,0,0,1,1.153-.023c.112.017.254.334.256.516.019,1.828.009,3.656.012,5.484a5.458,5.458,0,0,0,.042.789.9.9,0,0,0,1.037.88,3.331,3.331,0,0,0,1.958-.925c.09-.069.085-.291.085-.443.007-1.9.023-3.8,0-5.695-.006-.487.154-.646.627-.636,1.257.028,1.062-.115,1.067,1.065q.014,3.639-.005,7.277c0,.252.181.632-.324.685-.768.08-.923.013-1.065-.537-.025-.1-.044-.2-.089-.405" transform="translate(-181.914 -11.697)"/><path class="a" d="M226.983,92.973c.3-.212.565-.409.842-.582a3.2,3.2,0,0,1,2.255-.507c1.255.2,1.686.886,1.728,2.135.046,1.387.008,2.777.008,4.166,0,.809-.006,1.618.016,2.426.008.3-.066.445-.4.464-1.294.072-1.292.081-1.292-1.233,0-1.688-.025-3.376.01-5.063.036-1.758-.995-1.653-2.055-1.167a3.631,3.631,0,0,0-.9.639.738.738,0,0,0-.169.5c-.011,1.916-.018,3.833,0,5.749,0,.429-.112.6-.563.572-1.212-.068-1.1.24-1.1-1.083,0-2.426-.005-4.852,0-7.278,0-.3-.1-.676.414-.676.988,0,1.051.008,1.061.543a1.547,1.547,0,0,0,.138.4" transform="translate(-167.843 -68.404)"/><path class="a" d="M442.953,92.85a12.793,12.793,0,0,1,1.992-.935,2.106,2.106,0,0,1,2.906,2.2c-.031,2.143-.012,4.286,0,6.429,0,.4-.141.508-.531.5-1.19-.032-1.182-.017-1.18-1.22,0-1.792.005-3.583-.011-5.375-.009-1.059-.535-1.427-1.546-1.067a6.609,6.609,0,0,0-1.159.606.818.818,0,0,0-.391.79c.024,1.932.006,3.865.023,5.8,0,.382-.132.48-.5.473-1.168-.022-1.158-.01-1.152-1.165.014-2.371.01-4.742.031-7.113,0-.306-.157-.749.439-.767.813-.024.874,0,1,.687a.525.525,0,0,0,.068.16" transform="translate(-328.749 -68.368)"/><path class="a" d="M678.2,93.059a3.753,3.753,0,0,1,2.851-1.221,1.846,1.846,0,0,1,1.988,1.983c.043,2.284.02,4.57.029,6.855,0,.294-.123.41-.415.4-1.428-.06-1.184.189-1.2-1.151-.018-1.793-.037-3.587.011-5.379.035-1.3-.867-1.415-1.654-1.117a3.975,3.975,0,0,0-.807.38,1.208,1.208,0,0,0-.649,1.145c.062,1.862.021,3.726.042,5.59,0,.416-.13.563-.551.535-1.344-.089-1.162.183-1.167-1.146q-.013-3.586,0-7.172c0-.275-.167-.687.35-.731.871-.074,1,0,1.105.64.016.1.031.2.06.391" transform="translate(-503.953 -68.394)"/><path class="a" d="M510.313,16.039c.34-.23.627-.448.936-.629a3.126,3.126,0,0,1,2.774-.3,1.6,1.6,0,0,1,1.117,1.516c.047,2.422.011,4.845,0,7.268,0,.03-.029.06-.072.143-.407,0-.841,0-1.274,0-.336,0-.324-.247-.324-.482,0-1.967-.017-3.933,0-5.9.013-1.273-.358-1.6-1.768-1.176a3.647,3.647,0,0,0-.563.282,1.3,1.3,0,0,0-.784,1.334c.051,1.825.018,3.652.02,5.478,0,.069.04.165.008.2-.364.441-.85.127-1.278.17-.086.009-.288-.272-.289-.421-.017-2.581-.014-5.163-.008-7.744,0-.29-.136-.655.4-.676.788-.031.9.01,1.007.563.019.1.05.194.095.367" transform="translate(-378.937 -11.109)"/><path class="a" d="M305.586,14.773c.744.178,1.486.361,2.233.53.3.069.358.243.266.5-.047.132-.1.262-.158.39-.285.641-.264.57-.91.365a5.846,5.846,0,0,0-1.786-.235.855.855,0,0,0-.852.9,1.023,1.023,0,0,0,.731,1.093c.526.191,1.067.344,1.6.524,1.677.568,2.026,2.018,1.78,3.482-.232,1.383-1.06,1.831-2.527,1.99a4.973,4.973,0,0,1-3.112-.749c-.161-.1-.367-.394-.321-.5a4.3,4.3,0,0,1,.617-.938c.019-.024.235.09.348.157a3.589,3.589,0,0,0,2.364.548c.6-.082.993-.391,1.057-.851.117-.843-.057-1.231-.737-1.49-.637-.243-1.314-.389-1.935-.666A2.784,2.784,0,0,1,303.3,15.7a3.675,3.675,0,0,1,2.286-.929" transform="translate(-225.309 -11.002)"/><path class="a" d="M479.641,101.612a5.982,5.982,0,0,1-2.907-.808c-.239-.116-.4-.316-.146-.586a.544.544,0,0,0,.062-.085c.46-.748.462-.752,1.216-.37a3.577,3.577,0,0,0,2.253.327.914.914,0,0,0,.8-.8c.062-.456.155-1.009-.352-1.284a9.091,9.091,0,0,0-1.467-.555c-.879-.294-1.8-.6-2.091-1.58-.5-1.678-.1-3.365,1.956-3.629a6.069,6.069,0,0,1,2.744.3c.419.14.567.392.307.8a1.233,1.233,0,0,0-.15.336c-.1.374-.319.406-.631.25a3.309,3.309,0,0,0-1.947-.307.863.863,0,0,0-.819.694.94.94,0,0,0,.393,1.155,7.555,7.555,0,0,0,1.221.469c.862.272,1.793.508,2.17,1.424.842,2.047.318,4.255-2.61,4.254" transform="translate(-354.854 -68.661)"/><path class="a" d="M584.079,99.239a4.2,4.2,0,0,0,2.441.81c1.055-.018,1.622-.684,1.292-1.671a1.364,1.364,0,0,0-.706-.674c-.571-.257-1.2-.389-1.784-.618a2.394,2.394,0,0,1-1.58-2.524,2.116,2.116,0,0,1,1.5-2.276,4.63,4.63,0,0,1,3.621.292.491.491,0,0,1,.176.418,2.61,2.61,0,0,1-.258.68c-.143.3-.359.2-.62.142a10.611,10.611,0,0,0-1.936-.3.788.788,0,0,0-.841.716c-.068.48-.061.932.475,1.147a16.8,16.8,0,0,0,1.615.589c2.166.62,2.34,2.616,1.769,4.188a2.031,2.031,0,0,1-1.053,1.026,4.687,4.687,0,0,1-4.547-.583.534.534,0,0,1-.1-.5,6.452,6.452,0,0,1,.531-.869" transform="translate(-434.591 -68.554)"/><path class="a" d="M279.9,5.473a.8.8,0,0,0-.269-.067c-.628.1-.717-.229-.689-.761.023-.44.062-.733.619-.621.088.018.309-.193.323-.315.055-.469.047-.945.07-1.417A2.128,2.128,0,0,1,282.407,0,6.252,6.252,0,0,1,283.8.257c.36.1.521.337.3.719a2.714,2.714,0,0,0-.2.484.341.341,0,0,1-.527.238,1.732,1.732,0,0,0-.5-.137c-.871-.071-1.151.139-1.24,1-.05.483-.009.975-.009,1.548.394,0,.792.026,1.185-.007.409-.034.508.137.5.516-.009.882.007.883-.861.872a3.223,3.223,0,0,1-.369-.01c-.355-.045-.49.07-.487.461.021,2.229.006,4.459.022,6.689,0,.353-.11.453-.456.447-1.23-.02-1.229-.009-1.231-1.232q0-2.977-.008-5.954c0-.137-.012-.275-.019-.422" transform="translate(-207.746 -0.001)"/><path class="a" d="M336.72,22.355c.2-.8.361-1.511.557-2.211.355-1.265.713-2.53,1.106-3.784.255-.812.284-.8,1.195-.8h.725c-.138.411-.254.747-.365,1.085q-1.214,3.692-2.426,7.384a.627.627,0,0,1-.722.5c-1.032-.052-1.03-.025-1.335-.982q-1.167-3.654-2.342-7.305c-.185-.577-.151-.625.462-.635,1.129-.018,1.173-.031,1.488,1.031.538,1.811,1.015,3.641,1.52,5.462a1.736,1.736,0,0,0,.137.253" transform="translate(-248.018 -11.587)"/><path class="a" d="M356.49,82.409v2.624c.391,0,.733.009,1.076,0,.76-.025.76-.029.776.752.014.662.014.66-.67.652-.349,0-.7,0-1.151,0,0,.264,0,.5,0,.736q-.005,2.425-.011,4.851c0,.719.282.944.993.8.227-.044.611-.127.669-.033a2.846,2.846,0,0,1,.284.936c.015.074-.075.2-.149.255a2.623,2.623,0,0,1-3.119-.5,2.71,2.71,0,0,1-.339-1.336c-.039-1.7-.033-3.41-.008-5.114.007-.454-.108-.676-.579-.6-.344.054-.439-.114-.42-.419a5.225,5.225,0,0,0,.008-.58c-.016-.322.125-.456.444-.4.418.07.572-.1.543-.525a10.336,10.336,0,0,1,.008-1.368c.009-.145.109-.374.216-.406.446-.135.91-.209,1.429-.319" transform="translate(-263.529 -61.376)"/><path class="a" d="M15.128,79.7c-.378.545-.751,1.093-1.134,1.634-.789,1.117-1.575,2.236-2.379,3.342a.627.627,0,0,0-.015.8c1.147,1.908,2.275,3.827,3.406,5.745.295.5.262.553-.3.556-1.479.007-1.452-.008-2.165-1.272-.868-1.541-1.775-3.059-2.686-4.575-.46-.766-.48-.792.039-1.543,1.037-1.5,2.084-2.989,3.1-4.5a.846.846,0,0,1,.836-.41c.418.02.838,0,1.257,0l.039.213" transform="translate(-7.08 -59.193)"/><path class="a" d="M4.016,85.87c0,1.881-.016,3.763.012,5.643.007.423-.139.53-.508.491-.14-.015-.281-.015-.421-.016-.814-.011-.816-.01-.817-.809,0-3.639,0-7.278-.013-10.918,0-.462.123-.61.6-.582,1.142.067,1.144.042,1.144,1.184q0,2.5,0,5.007" transform="translate(-1.69 -59.34)"/><path class="a" d="M408.587,16.241c.577-.346,1.089-.668,1.618-.96a1.6,1.6,0,0,1,.559-.137c.58-.075.666.017.6.611,0,.035,0,.07-.007.105-.036.312.03.716-.141.91-.151.171-.572.089-.866.154a3.148,3.148,0,0,0-.9.28,1.231,1.231,0,0,0-.711,1.175c.042,1.808.015,3.617.028,5.426,0,.334-.048.523-.458.508-1.439-.051-1.228.193-1.232-1.221-.008-2.388,0-4.777,0-7.166,0-.319-.057-.635.429-.668.688-.047.873.034.977.536.031.15.068.3.1.446" transform="translate(-303.176 -11.262)"/><path class="a" d="M217.981,15.637c1.1-.225,1.169-.18,1.517.918l1.079-.789c.042-.031.084-.078.131-.085.49-.07.981-.133,1.472-.2,0,.479.028.961-.015,1.436-.009.1-.264.224-.423.26-.372.082-.766.076-1.129.181a1.2,1.2,0,0,0-.948,1.3c0,1.775-.01,3.551,0,5.325,0,.437-.105.624-.6.6-1.082-.062-1.085-.034-1.085-1.119,0-2.6,0-5.2,0-7.827" transform="translate(-162.345 -11.532)"/><path class="a" d="M263.544,97.193c0,1.351-.006,2.7,0,4.053,0,.282-.062.4-.375.422-1.33.077-1.322.088-1.318-1.223.006-1.965-.011-3.931.009-5.9.005-.482-.134-.681-.638-.692-.656-.015-.909-.413-.679-1.011a.469.469,0,0,1,.364-.2c.754-.011,1.509.018,2.263.008.377,0,.373.231.373.487q0,2.026,0,4.053h-.006" transform="translate(-193.986 -68.997)"/><path class="a" d="M617.9,97.121c0,1.334-.012,2.669.007,4,.006.414-.11.534-.543.522-1.363-.038-1.126.13-1.138-1.153-.019-1.984-.033-3.969,0-5.952.01-.532-.2-.669-.651-.7-.642-.05-.881-.4-.676-1.006a.448.448,0,0,1,.347-.21c.755-.016,1.51,0,2.264,0,.395,0,.386.277.386.549q0,1.975,0,3.951" transform="translate(-457.909 -68.977)"/><path class="a" d="M381.747,97.179c0,1.335-.008,2.671.006,4.006,0,.331-.078.465-.442.47-1.257.017-1.247.031-1.246-1.207,0-1.967-.046-3.935,0-5.9.016-.592-.23-.69-.684-.7-.379-.011-.684-.047-.662-.576.028-.659-.008-.657.673-.646.6.009,1.2.036,1.791,0,.43-.023.554.147.55.548-.014,1.335-.005,2.67-.005,4.006h.013" transform="translate(-282.061 -68.98)"/><path class="a" d="M620.213,80.047A1.042,1.042,0,0,1,619.1,78.94a1.11,1.11,0,0,1,1.051-1.2,1.154,1.154,0,0,1,1.208,1.226,1.038,1.038,0,0,1-1.142,1.077" transform="translate(-461.084 -57.902)"/><path class="a" d="M383.969,80.009a1.037,1.037,0,0,1-1.164-1.055,1.135,1.135,0,0,1,1.031-1.258,1.184,1.184,0,0,1,1.214,1.124,1.036,1.036,0,0,1-1.081,1.189" transform="translate(-285.101 -57.866)"/><path class="a" d="M264.657,78.89a1.023,1.023,0,0,1,1.075-1.139,1.08,1.08,0,0,1,1.1,1.142,1.019,1.019,0,0,1-1.1,1.17c-.694.006-1.07-.4-1.077-1.174" transform="translate(-197.108 -57.907)"/></g></svg>