<svg xmlns="http://www.w3.org/2000/svg" width="130.2" height="36.793" viewBox="0 0 130.2 36.793"><defs><style>.a{fill:#fa6e68;}</style></defs><path class="a" d="M89.741,31.074h8.248c.143-.972.282-1.944.425-2.917s.278-1.969.432-3.05c-2.536,0-4.93.033-7.324-.017-.782-.017-.982.283-1.067.94-.219,1.683-.451,3.366-.714,5.045m-17.718,0h9.758a26.87,26.87,0,0,1,1.453-9.568,5.71,5.71,0,0,1,5.222-4.189,23.889,23.889,0,0,1,8.945.747c.417.112.829.243,1.293.378.63-2.369,1.223-4.594,1.853-6.963C99.976,11.3,99.5,11.13,99,11.005a31.958,31.958,0,0,0-11.191-.733c-6.294.663-10.976,3.541-13.478,9.184a26.8,26.8,0,0,0-2.313,11.617m-12.224,0H70.7a6.741,6.741,0,0,0-3.365-5.958A22.087,22.087,0,0,0,64.071,23.5c-1.7-.737-3.478-1.342-5.154-2.133a1.767,1.767,0,0,1-.468-2.957,3.388,3.388,0,0,1,1.913-.93,37.609,37.609,0,0,1,5.507.078,46.681,46.681,0,0,1,4.642.88c.558-1.921,1.042-3.827,1.685-5.683.319-.921.04-1.22-.849-1.479a25.916,25.916,0,0,0-12.289-.823c-4.889.95-8.609,3.39-9.94,8.246-.859,3.131-.641,6.135,2.242,8.31a25.569,25.569,0,0,0,4.55,2.411c1.269.6,2.613,1.067,3.891,1.652m-23.682,0H27.228q-.292,1.948-.583,3.9c1.7,0,3.273.03,4.849-.006a4.374,4.374,0,0,0,4.36-3.066c.1-.274.174-.554.263-.829m0,0H46a25.525,25.525,0,0,0,1.047-12.563C46.48,14.757,44,12.3,40.1,11.382a28.538,28.538,0,0,0-5.76-.728c-4.214-.107-8.434-.036-12.653-.034-.25,0-.5.042-.789.067q-1.505,10.22-3,20.387h9.335c.66-4.419,1.319-8.831,1.994-13.353,1.969.1,3.906.11,5.813.339a2.685,2.685,0,0,1,2.4,2.444,20.8,20.8,0,0,1-.5,7.495,27.327,27.327,0,0,1-.818,3.075m53.3,1.977c.123-.656.215-1.318.319-1.977h-7.96c.02.35.04.7.079,1.053.268,2.385,1.2,3.189,3.727,3.5a6.73,6.73,0,0,0,2.977-.092c1.056-.384.7-1.627.857-2.486m23.9-1.977h14.72q1.258-8.482,2.509-16.967c.168-1.136.291-2.279.436-3.438h-8.162c-.826,5.588-1.647,11.132-2.489,16.819-.194-.3-.333-.492-.446-.694q-4.333-7.73-8.651-15.467a1.246,1.246,0,0,0-1.285-.726c-2.042.044-4.088.031-6.132.008-.544-.006-.817.11-.884.684-.151,1.311-.381,2.615-.574,3.923q-1.167,7.929-2.33,15.858h8.221c.333-2.274.669-4.561,1.011-6.882.271.44.42.674.56.912q1.75,2.984,3.5,5.97m23.22,9.61a4.311,4.311,0,0,1-3.573,2.063c-.3.031-.6.031-.9.045l-.008.04c-.579-.075-1.168-.106-1.733-.232-1.49-.33-2.172-1.034-2.195-2.476a7.911,7.911,0,0,1,.394-2.512,3.541,3.541,0,0,1,2.657-2.354,7.711,7.711,0,0,1,3.708-.067,2.636,2.636,0,0,1,2.231,2.613,5.112,5.112,0,0,1-.582,2.879m4.857-9.61H128.042q-.387,2.6-.77,5.2c-.258,1.733-.538,3.464-.758,5.2-.07.555-.3.714-.866.7-1.621-.03-3.245-.051-4.866.008a1.385,1.385,0,0,1-1.428-.812q-3-5.161-6.033-10.307h-5.067c-.544,3.705-1.084,7.372-1.624,11.051H98.438c.235-1.663.456-3.29.7-4.916q.448-3.068.9-6.135H97.988c-.453,3.072-.912,6.145-1.341,9.221a1.311,1.311,0,0,1-1.109,1.265,32.018,32.018,0,0,1-15.276.583c-4.822-1.09-7.669-4.29-8.122-8.98-.068-.7-.1-1.4-.118-2.089H70.7a11.688,11.688,0,0,1-.793,4.009c-1.532,4.143-5.018,6.313-9.369,7.233a23.385,23.385,0,0,1-13.7-1.28c-.871-.345-1.024-.761-.73-1.6.66-1.89,1.192-3.819,1.8-5.819,1.165.432,2.251.884,3.371,1.238a15.71,15.71,0,0,0,7.938.642,2.676,2.676,0,0,0,2.021-1.442,1.823,1.823,0,0,0-.821-2.7c-.2-.1-.408-.19-.611-.283H46a22.816,22.816,0,0,1-2.858,5.516,12.891,12.891,0,0,1-10.211,5.343c-5.466.292-10.956.165-16.436.218-.028,0-.054-.031-.212-.126q.807-5.472,1.613-10.951H11.2V46.843H141.4Z" transform="translate(-11.198 -10.05)"/></svg>